<?xml version="1.0" standalone="no"?><!DOCTYPE svg PUBLIC "-//W3C//DTD SVG 1.1//EN" "http://www.w3.org/Graphics/SVG/1.1/DTD/svg11.dtd"><svg class="icon" width="200px" height="200.00px" viewBox="0 0 1024 1024" version="1.1" xmlns="http://www.w3.org/2000/svg"><path d="M972.8 0a51.2 51.2 0 0 1 51.2 51.2v921.6a51.2 51.2 0 0 1-51.2 51.2H51.2a51.2 51.2 0 0 1-51.2-51.2V51.2a51.2 51.2 0 0 1 51.2-51.2h921.6zM499.2 550.4h-108.8a108.8 108.8 0 1 0 108.8 108.8V550.4z m160 0H550.4v108.8a108.8 108.8 0 1 0 108.8-108.8z m-211.2 51.2v57.6a57.6 57.6 0 1 1-57.6-57.6h57.6z m211.2 0a57.6 57.6 0 1 1-57.6 57.6V601.6zM390.4 281.6a108.8 108.8 0 0 0 0 217.6h108.8v-108.8A108.8 108.8 0 0 0 390.4 281.6z m268.8 0a108.8 108.8 0 0 0-108.8 108.8v108.8h108.8a108.8 108.8 0 0 0 0-217.6z m-268.8 51.2a57.6 57.6 0 0 1 57.6 57.6v57.6h-57.6a57.6 57.6 0 0 1 0-115.2z m268.8 0a57.6 57.6 0 0 1 0 115.2H601.6v-57.6A57.6 57.6 0 0 1 659.2 332.8z" fill="#A971EB" /></svg>