<?xml version="1.0" standalone="no"?><!DOCTYPE svg PUBLIC "-//W3C//DTD SVG 1.1//EN" "http://www.w3.org/Graphics/SVG/1.1/DTD/svg11.dtd"><svg class="icon" width="200px" height="200.00px" viewBox="0 0 1024 1024" version="1.1" xmlns="http://www.w3.org/2000/svg"><path d="M704 0H192a64 64 0 0 0-64 64v320h576a64 64 0 0 1 64 64v416a64 64 0 0 1-64 64H128v32a64 64 0 0 0 64 64h768a64 64 0 0 0 64-64V320z" fill="#EAEAEA" /><path d="M704 0v256a64 64 0 0 0 64 64h256z" fill="#434854" /><path d="M768 320l256 256V320H768z" opacity=".1" /><path d="M704 832a32 32 0 0 1-32 32H32a32 32 0 0 1-32-32V480a32 32 0 0 1 32-32h640a32 32 0 0 1 32 32z" fill="#519ABA" /><g fill="#FFFFFF" transform="translate(80 0)"><g transform="translate(128 544) scale(0.72 1.024) translate(-517.5296 -421.2736)"><path d="M715.6736 640v-218.7264h-42.0864l-56.832 118.272-57.1392-118.272h-42.0864V640h42.7008v-127.488l42.0864 82.944h28.8768l41.7792-82.944V640z" /></g><g transform="translate(192 0)"><path d="M192 544L128 544L128 768L192 768a64 64 0 0 0 64-64v-96a64 64 0 0 0-64-64z m0 192h-32V576h32a32 32 0 0 1 32 32v96a32 32 0 0 1-32 32z" /></g></g></svg>
