<?xml version="1.0" standalone="no"?><!DOCTYPE svg PUBLIC "-//W3C//DTD SVG 1.1//EN" "http://www.w3.org/Graphics/SVG/1.1/DTD/svg11.dtd"><svg class="icon" width="200px" height="200.00px" viewBox="0 0 1024 1024" version="1.1" xmlns="http://www.w3.org/2000/svg"><path d="M972.8 0a51.2 51.2 0 0 1 51.2 51.2v921.6a51.2 51.2 0 0 1-51.2 51.2H51.2a51.2 51.2 0 0 1-51.2-51.2V51.2a51.2 51.2 0 0 1 51.2-51.2h921.6zM640 256H384a25.6 25.6 0 0 0-25.6 25.6v102.4h-76.8a25.6 25.6 0 0 0-25.6 25.6v256a25.6 25.6 0 0 0 25.6 25.6h76.8v51.2a25.6 25.6 0 0 0 25.6 25.6h256a25.6 25.6 0 0 0 25.6-25.6v-51.2h76.8a25.6 25.6 0 0 0 25.6-25.6V409.6a25.6 25.6 0 0 0-25.6-25.6h-76.8v-102.4a25.6 25.6 0 0 0-25.6-25.6z m-25.6 384v76.8h-204.8v-76.8h204.8z m102.4-204.8v204.8h-51.2v-25.6a25.6 25.6 0 0 0-25.6-25.6H384a25.6 25.6 0 0 0-25.6 25.6v25.6h-51.2v-204.8h409.6z m-307.2 25.6h-76.8v51.2h76.8v-51.2z m204.8-153.6v76.8h-204.8v-76.8h204.8z" fill="#36C7A4" /></svg>