<?xml version="1.0" standalone="no"?><!DOCTYPE svg PUBLIC "-//W3C//DTD SVG 1.1//EN" "http://www.w3.org/Graphics/SVG/1.1/DTD/svg11.dtd"><svg class="icon" width="200px" height="200.00px" viewBox="0 0 1024 1024" version="1.1" xmlns="http://www.w3.org/2000/svg"><path d="M170.666667 0h682.666666a170.666667 170.666667 0 0 1 170.666667 170.666667v682.666666a170.666667 170.666667 0 0 1-170.666667 170.666667H170.666667a170.666667 170.666667 0 0 1-170.666667-170.666667V170.666667A170.666667 170.666667 0 0 1 162.133333 0.213333L170.666667 0z" fill="#1D2129" /><path d="M234.666667 234.666667h554.666666c17.024 0 30.805333 13.781333 30.805334 30.805333v493.056a30.805333 30.805333 0 0 1-30.805334 30.805333h-554.666666a30.805333 30.805333 0 0 1-30.805334-30.805333V265.472c0-17.024 13.781333-30.805333 30.805334-30.805333z m277.333333 369.792v61.610666h184.874667v-61.610666H512zM401.493333 512l-87.125333 87.168 43.52 43.562667L488.704 512 357.930667 381.269333 314.368 424.832 401.493333 512z" fill="#FFFFFF" /></svg>